<svg width="91" height="91" viewBox="0 0 91 91" fill="none" xmlns="http://www.w3.org/2000/svg">
<circle cx="45.0443" cy="45.0443" r="45.0443" fill="#CF7569"/>
<path d="M56.0765 25.8179C59.2017 28.9328 60.6863 32.0789 61.5642 36.3299C62.3273 39.7685 63.8044 41.5679 66.4345 43.9234C67.7453 45.5801 67.6122 46.6839 67.4304 48.723C65.8317 49.3072 64.2331 49.8915 62.586 50.4934C62.5521 51.3572 62.5521 51.3572 62.5174 52.2385C62.4776 52.9894 62.4378 53.7402 62.3968 54.5138C62.3441 55.6332 62.3441 55.6332 62.2904 56.7753C61.9805 58.7555 61.9805 58.7555 61.2945 59.8251C59.1092 61.1797 56.5337 61.7172 54.0683 62.4324C51.6631 63.5687 51.6631 63.5687 51.0808 68.1979C45.0859 68.1979 39.0911 68.1979 32.9146 68.1979C32.8272 66.7738 32.7397 65.3497 32.6497 63.8824C32.2113 59.4238 30.7227 57.0558 27.5854 53.7323C23.7633 49.5178 23.3504 44.6113 23.6044 39.1861C24.1733 33.5093 26.7516 29.4815 31.098 25.7072C38.9394 20.4493 48.3226 20.7316 56.0765 25.8179ZM35.9423 32.789C35.7038 34.1604 35.4973 35.5379 35.3367 36.92C34.1635 37.6946 34.1635 37.6946 32.9146 38.1003C31.4532 39.2745 31.4532 39.2745 31.4764 41.5674C31.5293 43.3438 31.644 43.9148 32.6875 45.4403C34.3555 46.6453 34.3555 46.6453 37.7589 46.9525C38.9579 44.8103 40.1568 42.6681 41.3921 40.4609C45.1176 40.4033 45.1176 40.4033 46.2365 40.4609C47.2437 41.4426 47.0603 42.6932 47.1826 44.0387C47.2587 44.8523 47.2587 44.8523 47.3364 45.6823C47.3731 46.1015 47.4097 46.5207 47.4475 46.9525C51.4459 46.8443 51.4459 46.8443 55.0925 45.4403C56.2847 43.3806 56.4205 41.5903 55.9251 39.2806C54.8899 37.7778 54.8899 37.7778 53.5029 36.92C53.1033 36.92 52.7036 36.92 52.2919 36.92C52.2794 36.4697 52.2669 36.0193 52.254 35.5553C52.0667 35.0319 51.8793 34.5085 51.6863 33.9693C49.8758 33.0782 49.8758 33.0782 48.5522 32.6461C47.4475 32.1988 47.4475 32.1988 45.9715 30.9079C44.2141 29.6964 42.9369 29.4564 40.7866 29.5755C38.4735 30.0774 37.5061 31.0419 35.9423 32.789ZM43.2088 44.592C42.4993 45.943 41.7934 47.2955 41.0894 48.6492C40.8872 49.0334 40.685 49.4176 40.4767 49.8134C39.3524 51.8227 39.3524 51.8227 38.97 54.0343C40.5686 54.0343 42.1672 54.0343 43.8143 54.0343C43.8143 55.9818 43.8143 57.9293 43.8143 59.9358C45.2176 58.1123 46.2327 56.5618 47.2583 54.5507C47.5229 54.038 47.7875 53.5252 48.0602 52.9969C48.74 51.7347 48.74 51.7347 48.6586 50.4934C47.06 50.4934 45.4614 50.4934 43.8143 50.4934C43.8143 48.5459 43.8143 46.5985 43.8143 44.592C43.6145 44.592 43.4146 44.592 43.2088 44.592Z" fill="white"/>
</svg>
