<svg width="1920" height="332" viewBox="0 0 1920 332" fill="none" xmlns="http://www.w3.org/2000/svg">
<path opacity="0.06" d="M0 169.243C5.76155 172.64 11.3213 177.655 17.0156 181.08C44.68 197.69 80.9755 206.48 111.846 203.811C158.185 199.793 196.05 157.864 233.78 129.551C251.401 116.339 270.367 105.499 287.831 92.3675C319.396 68.585 344.527 37.4144 379.052 18.7282C512.06 -53.2933 622.292 101.481 725.641 175.013C750.301 192.54 777.809 208.179 806.639 211.361C820.202 199.712 831.972 184.396 845.423 172.29C890.462 131.654 943.1 122.055 987.646 86.3545C1040.17 44.2634 1079.36 -3.54424 1149.13 0.904859C1249.34 7.29538 1313.18 101.805 1393.78 154.493C1458.28 196.638 1503.65 173.8 1562.93 133.461C1630.97 87.1365 1668.11 10.558 1752.65 0.958758C1812.11 -5.7823 1860.64 23.9593 1909.09 60.7924C1913.44 64.109 1921.17 65.4572 1919.47 73.0881C1884.32 44.7217 1846.99 17.38 1804.75 7.43016C1768.64 -1.06358 1731.6 2.76536 1698.69 23.2042L1679.57 37.0099C1688.36 34.2865 1696.16 28.1118 1704.57 24.2559C1777.85 -9.34154 1857.84 25.9277 1916.64 81.7437C1917.59 82.6335 1921.02 84.7906 1919.49 86.5702C1917.97 88.3498 1886.94 59.5521 1882.39 58.3117C1840.04 28.705 1795.45 6.81002 1745.32 14.6296C1727.7 17.38 1711.09 23.5278 1694.99 32.2373C1693.58 32.9923 1690.67 33.3698 1690.82 35.473C1698 34.0709 1705.13 29.46 1712.01 27.168C1774.67 6.37857 1831.45 31.5901 1884.41 70.904C1893.67 77.7799 1909.63 89.2397 1917.45 97.275C1919.36 99.2434 1919.94 99.6748 1919.49 103.072C1862.26 54.321 1796.19 8.05037 1723.02 26.8444C1709.81 30.2419 1693.29 37.2527 1680.89 43.805C1679.37 44.6139 1675.89 45.288 1675.85 47.4721C1683.78 45.989 1690.71 40.2996 1698.31 37.684C1775.68 10.8546 1846.23 51.301 1907.43 104.852C1910.52 107.575 1914.72 110.892 1917.47 113.831C1919.33 115.799 1920.03 116.096 1919.51 119.628C1891.96 97.1402 1864.63 72.9533 1834.14 56.2624C1783.17 28.3275 1730.64 23.393 1678.36 49.791L1670.85 55.0221C1680.87 51.5437 1690.58 46.5013 1700.82 43.751C1775.03 23.7705 1849.08 67.9379 1906.94 120.518C1909.4 122.756 1921.98 132.733 1919.51 136.184C1883.91 107.737 1849.59 75.7845 1808.97 58.0151C1766.24 39.3558 1722.86 35.9583 1679.61 54.294C1674.48 56.4781 1669.19 60.4689 1663.76 62.2755L1657.13 67.0481C1666.79 63.7045 1675.83 58.5814 1685.6 55.4535C1773.64 27.2489 1850.22 87.3252 1917.72 146.646L1919.54 154.197C1894.97 133.919 1871.38 111.62 1845.42 93.8236C1789.06 55.2108 1728.71 37.1178 1665.89 66.3201L1654.64 73.0612C1668.23 68.7739 1681.36 62.0328 1695.37 59.7138C1781.44 45.5037 1852.82 106.766 1918.28 164.011L1919.54 170.753C1875.15 133.946 1829.91 90.6418 1777.36 72.0095C1748.53 61.7901 1712.77 58.7971 1683.34 66.2931C1672.89 68.9626 1662.69 73.3038 1652.6 77.4024C1650.96 78.0765 1648.77 77.7798 1648.39 80.5841C1655.2 79.3707 1661.5 75.4879 1668.11 73.5195C1755.86 47.3103 1830.74 105.337 1898.71 163.526C1904.58 168.568 1912.23 174.447 1917.47 180.028C1918.73 181.376 1920.97 183.938 1919.54 185.799C1917.77 188.091 1880.93 153.549 1875.87 151.905C1813.86 96.4122 1739.9 52.1639 1660.85 79.8561C1656.32 81.447 1651.17 83.4424 1646.79 85.5186C1645.47 86.1388 1643.07 85.9501 1643.36 88.1342C1648.97 87.6488 1653.95 84.1434 1659.33 82.5525C1758.75 53.4581 1842.08 133.515 1918.26 197.097L1919.51 203.838C1842.37 141.82 1758.21 55.9658 1658.07 87.0555L1644.6 92.6371C1662.64 88.242 1679.05 84.0895 1697.71 85.1411C1754.63 88.3498 1799.22 117.525 1845.69 153.63C1870.78 173.098 1895.17 194.562 1919.33 215.351L1919.51 221.877C1855.67 169.998 1788.86 100.079 1708.96 91.1541C1696.58 89.779 1681.5 89.4015 1669.1 91.3159C1662.51 92.3406 1653.68 94.6325 1647.09 96.4121C1645.7 96.7896 1643.05 96.4391 1643.36 98.6502C1659.35 96.52 1673.94 93.0686 1690.22 94.1471C1778.95 100.106 1847.62 172.586 1917.7 229.319C1920.12 231.476 1919.58 235.17 1919.51 238.379C1851.27 183.102 1785.56 111.89 1700.22 100.133C1683.6 98.8389 1666.88 98.1109 1650.4 101.832C1648.9 102.182 1644.6 102.29 1644.62 104.609C1697.32 96.7357 1747.3 112.618 1792.92 143.411C1835.24 171.993 1873.98 208.152 1913.37 241.992C1919.78 247.493 1920.52 245.47 1919.51 257.874C1873.87 219.72 1829.08 175.336 1779.6 144.409C1729.43 113.049 1670.27 100.646 1614.6 117.363C1610.9 118.469 1603.46 120.815 1600.41 122.837C1595.68 125.965 1594.2 133.839 1591.4 139.043C1580.28 159.805 1567.7 179.489 1554.61 198.472C1527.77 237.381 1484.06 295.462 1441.96 306.464C1345.42 331.702 1282.43 249.812 1211.36 189.007C1140.11 128.041 1079.72 90.1564 988.072 107.818C982.893 108.816 977.625 109.786 972.603 111.755C947.584 152.336 920.458 188.819 882.772 212.601C851.633 232.258 817.938 248.517 786.485 268.12C731.627 302.311 697.237 343.539 632.784 303.201C543.939 247.628 474.218 126.342 370.42 106.308C361.318 104.555 310.944 99.9984 306.438 104.852C305.586 105.769 299.533 128.284 299.018 131.25C298.636 133.434 298.973 138.935 298.726 139.177C298.48 139.42 296.462 137.533 296.26 137.667C295.341 138.315 289.557 159.482 289.221 161.693C288.683 165.414 290.117 167.652 289.781 171.103C288.414 184.531 280.029 204.754 276.016 217.832C275.052 220.96 275.635 227.782 272.497 229.346C272.205 214.812 280.5 201.6 283.19 188.738C285.028 179.974 286.553 171.157 287.584 162.663C289.602 146.107 298.547 126.585 302.851 110.353C303.255 108.843 304.689 105.553 303.12 104.663C301.528 106.119 300.721 107.656 299.914 109.84C292.023 131.142 287.696 156.488 280.612 178.276C275.837 192.944 267.833 212.358 261.511 225.921C258.911 231.503 255.772 237.031 252.297 241.884C251.356 243.205 249.854 246.765 250.033 242.154C251.916 239.7 252.41 236.006 253.777 233.417C264.538 212.979 269.941 198.957 277.496 175.984C281.554 163.607 289.557 143.654 291.283 130.953C292.202 124.239 286.306 136.616 285.791 137.883C281.733 148.022 278.505 158.349 274.738 168.164C272.9 172.964 265.95 194.535 262.52 194.805C266.982 184.1 271.712 170.833 275.03 159.535C275.456 158.079 279.088 148.237 276.263 148.237C276.644 147.105 276.532 144.867 277.227 142.71C278.37 139.231 286.082 125.83 285.006 124.212C283.257 121.624 281.509 131.412 281.24 131.735C281.128 131.897 278.953 130.037 278.774 130.198C278.527 130.414 278.706 134.782 277.81 137.317C270.412 158.025 251.558 193.079 241.043 213.329C234.116 226.649 225.619 241.911 217.504 254.153C216.092 256.256 212.482 259.33 211.855 260.975C210.509 264.588 213.805 262.323 209.209 268.956C155.853 345.939 86.7371 342.73 13.1596 310.589L6.34443 304.522C15.536 307.488 24.4586 312.908 33.538 316.117C99.4483 339.468 165.022 333.724 208.738 264.669C232.211 227.593 250.795 185.879 271.465 146.269L283.728 116.716C265.861 136.912 257.073 165.521 244.272 190.221C195.13 285.108 142.425 336.933 44.7921 307.111C29.5475 302.446 14.1909 296.271 0.0672559 288.02V285.027C16.5673 293.251 33.5604 300.666 51.002 305.682C104.089 320.943 148.186 312.099 189.369 268.471C199.076 258.198 207.438 246.01 216.249 234.685C216.585 228.726 212.168 239.188 212.527 233.202C217.818 225.948 222.481 218.075 227.525 210.606C241.873 189.385 247.634 175.687 259.001 152.336C263.552 142.979 268.977 134.189 273.774 125.021C273.326 123.134 271.017 126.693 270.613 127.232C258.418 144.112 250.033 164.605 239.295 182.725C217.235 219.935 185.939 267.608 150.899 286.807C114.76 306.598 66.6725 301.556 29.7493 286.186C19.661 281.98 10.178 275.643 0.0896738 271.518V268.525C16.5224 275.428 31.4755 284.191 48.5584 289.152C122.45 310.535 169.17 285.566 214.993 216.646C231.986 191.111 247.231 163.553 261.287 135.564C259.314 132.463 259.247 135.375 258.44 136.697C247.702 154.385 237.389 173.719 225.687 190.409C208.895 214.381 180.827 251.268 158.409 265.775C112.249 295.651 60.911 285.593 14.2357 262.781L6.36685 256.499C8.58627 256.04 10.2452 256.795 12.2629 257.658C47.4823 272.758 71.5149 284.11 110.59 280.389C167.87 274.942 204.434 215.001 238.084 166.223C238.443 163.122 247.321 151.204 246.289 149.828C245.101 148.21 225.126 180.325 223.198 182.913C171.098 253.506 118.549 288.424 38.896 257.227C25.445 251.969 12.3302 245.497 0.134511 236.977V233.984C15.1549 244.23 32.2378 251.429 48.8723 257.281C122.786 283.22 172.712 246.091 220.06 182.185C223.176 177.979 226.404 173.638 229.475 169.404C231.785 166.196 234.587 161.827 236.336 158.106C234.856 157.297 232.188 161.342 231.291 162.555C202.08 202.193 168.856 234.685 125.117 248.275C85.1454 259.33 42.5727 247.331 7.26358 224.654C5.15625 223.306 2.46603 222.605 0.134511 221.958V217.455C3.99049 218.668 6.99456 221.823 10.5143 223.764C68.1073 255.07 116.531 261.622 173.228 220.502C177.442 217.428 183.181 212.736 186.32 208.476L181.321 209.231C198.695 193.888 213.11 174.986 227.547 155.895C225.194 155.248 224.588 157.459 223.176 158.888C214.859 167.328 207.461 177.709 199.121 185.88C176.635 208.017 145.922 230.532 116.823 235.359C79.877 241.48 53.625 233.822 20.5129 216.268C16.8811 214.327 11.5455 211.9 8.87771 208.502C16.0292 206.399 19.7507 212.493 25.1087 215.27C71.358 239.161 131.753 244.5 173.721 204.62C174.236 204.134 177.33 201.707 175.694 200.979C170.067 203.433 164.686 207.37 158.925 209.365C157.714 209.797 154.8 211.28 155.113 208.529C175.514 199.847 193.718 184.963 208.85 166.465L180.491 188.711C151.885 207.936 123.526 225.76 89.4945 223.549L76.3797 220.555C92.1399 220.663 105.86 220.906 121.374 216.807C137.605 212.52 151.257 204.701 165.471 194.724C174.304 188.522 184.123 181.188 191.319 172.478C182.778 175.552 175.492 183.399 167.6 188.279C124.221 215.055 78.9803 211.145 33.8519 194.265L0.134511 173.961V169.458L0 169.243ZM807.267 214.327C766.51 210.498 728.824 182.401 695.645 155.437C614.154 89.2666 527.641 -13.6558 420.638 5.6236C399.228 9.47948 380.598 21.3437 362.395 34.7449C363.336 36.983 365.399 34.3674 366.542 33.7203C376.563 28.1117 385.329 22.0448 396.134 18.2158C527.036 -28.4862 631.708 129.174 735.191 195.02C751.871 205.644 785.992 223.198 804.352 217.482C806.527 216.807 807.85 218.614 807.267 214.3V214.327ZM1513.31 169.243C1505.38 170.995 1498.23 175.552 1490.27 177.494C1411.74 196.53 1360.76 130.064 1302.04 81.447C1240.59 30.5925 1166.43 -17.5387 1089.96 14.0364C1079.07 18.5395 1069.34 26.4939 1058.47 30.997C1058.2 33.7743 1061.07 32.3182 1062.25 31.8058C1069.27 28.705 1076.58 23.3661 1084.02 20.4C1160.13 -9.71902 1229.74 33.5046 1291.28 83.8199C1355.11 136.023 1420.91 220.609 1505.02 174.986L1513.31 169.189V169.243ZM803.523 220.34C777.562 222.955 752.566 209.581 730.192 195.047C634.555 132.895 547.661 3.65516 429.202 12.9039C416.535 13.9016 391.516 20.6427 380.419 27.7612C378.379 29.0825 378.626 29.5139 377.415 31.7519L402.075 22.3414C518.427 -1.06358 605.052 109.328 693.672 178.896C723.534 202.328 757.139 227.431 793.973 227.297L803.545 220.34H803.523ZM1508.31 178.249C1496.84 182.266 1484.21 187.956 1472.36 189.843C1436.42 195.587 1409.79 184.423 1379.7 162.34C1296.46 101.212 1212.3 -8.15513 1104.63 16.652C1090.59 19.8877 1076.87 26.8984 1063.44 32.5069C1063.17 35.3112 1066 33.7473 1067.25 33.3428C1072.21 31.7519 1077.16 28.7589 1082.16 27.222C1174.64 -1.36011 1238.6 56.559 1310.02 115.422C1368.63 163.715 1416.8 222.012 1493.97 187.309C1498.65 185.205 1505.27 183.021 1508.31 178.276V178.249ZM792 229.642C791.237 228.995 787.583 230.991 785.453 230.937C751.445 229.885 701.519 189.978 673.653 166.87C597.094 103.369 511.993 5.97412 410.639 23.6357C399.183 25.631 388.019 30.2689 377.393 35.4999C377.124 38.3042 379.948 36.7403 381.204 36.3358C385.284 35.0146 389.185 32.5069 393.332 31.3744C514.504 -1.81856 622.157 149.936 718.512 212.062C741.805 227.081 767.721 240.59 794.757 233.795L791.977 229.588L792 229.642ZM1512.06 182.779C1508.38 183.129 1505.47 186.527 1502.04 188.01C1498.05 189.735 1493.36 190.652 1489.28 192.216C1435.41 212.871 1403.31 195.667 1358.45 160.884C1269.54 91.9361 1191.47 -9.79991 1074.67 33.2889C1066.13 36.4437 1057.99 40.677 1049.7 44.5869C1049.43 47.3642 1052.3 45.9082 1053.49 45.3958C1060.19 42.4567 1066.29 38.7896 1073.42 36.3089C1177.19 0.0150536 1260.75 92.2866 1339.19 157.001C1378.67 189.574 1416.8 218.749 1467.29 206.399C1480.99 203.056 1496.43 195.371 1508.31 186.608C1509.66 185.61 1511.77 185.124 1512.04 182.833L1512.06 182.779ZM786.014 238.352C765.994 241.695 744.988 231.557 727.009 221.391C658.834 182.94 601.106 109.921 533.201 66.7785C485.898 36.7133 429.897 19.0518 377.415 40.003C377.124 42.6994 380.172 41.4321 381.473 41.1354C387.369 39.8142 393.153 37.4414 399.228 36.929C507.24 27.896 585.615 121.974 667.42 189.385C692.238 209.824 730.73 239.808 760.771 243.933C764.829 244.5 776.935 245.363 780.23 244.338C781.149 244.068 780.97 242.073 781.329 241.776C781.71 241.453 782.853 242.693 783.234 242.37C783.413 242.208 785.947 239.107 786.036 238.352H786.014ZM1503.32 194.778C1498.83 195.694 1495 199.496 1490.81 201.519C1441.75 225.193 1400.86 209.392 1358.47 177.386C1276.26 115.314 1195.51 10.9895 1088.39 34.691C1075.37 37.5762 1062.14 43.751 1049.72 49.036C1049.43 51.7864 1052.32 50.3033 1053.56 49.8719C1056.34 48.9012 1058.85 47.0407 1061.67 46.0969C1177.26 7.3763 1259.22 109.517 1346.74 179.462C1391.42 215.19 1433.12 234.253 1485.83 207.505C1491.7 204.512 1498.67 200.036 1503.34 194.751L1503.32 194.778ZM776.015 248.868C736.805 248.302 700.958 221.499 669.393 195.991C594.381 135.349 520.019 45.7733 424.292 39.9221C407.501 38.8975 390.956 40.1378 374.882 46.016C374.59 48.6585 377.751 47.553 379.119 47.3373C391.359 45.4498 403.107 43.5083 415.549 44.4251C510.962 51.3279 584.92 137.91 659.394 198.984C688.449 222.82 734.048 258.44 770.456 253.425C773.101 253.047 775.007 252.131 776.015 248.841V248.868ZM1504.57 199.308C1498.14 201.734 1493.41 207.262 1487.06 210.552C1429.04 240.617 1384.77 215.594 1336.72 176.496C1260.59 114.559 1180.02 21.2898 1079.65 43.7241C1067.66 46.3935 1056.11 51.5976 1044.72 56.559C1044.48 59.3902 1047.26 57.8263 1048.51 57.341C1059.18 53.0806 1070.3 48.8203 1081.6 47.526C1182.26 36.0662 1253.75 120.653 1330.49 182.482C1375.84 219.019 1418.62 247.628 1474.33 220.744C1484.69 215.756 1496.12 208.017 1504.59 199.281L1504.57 199.308ZM769.783 256.391C765.613 256.472 762.295 258.198 757.946 257.901C705.33 254.503 636.259 183.453 594 146.943C533.515 94.7404 463.435 36.7673 384.41 49.1708C374.007 50.8156 363.964 55.7771 353.651 58.0421C353.36 60.7385 356.409 59.4711 357.709 59.1745C363.56 57.8802 370.017 54.9951 375.823 53.8896C445.769 40.5423 519.503 94.6055 573.98 140.93C619.445 179.597 687.014 252.292 741.782 262.215C748.53 263.429 758.462 264.642 764.649 261.487C765.479 261.056 769.469 257.847 769.761 256.364L769.783 256.391ZM1520.8 191.785L1489.6 215.109C1433.59 251.645 1389.83 233.714 1339.71 195.425C1261.33 135.564 1188.92 42.6185 1087.74 50.492C1067.61 52.056 1048.24 59.7138 1029.7 68.612C1029.46 71.4432 1032.24 69.8793 1033.47 69.394C1047.57 63.8124 1060.3 58.1499 1075.44 56.7478C1172.49 47.6608 1239.41 124.671 1313.45 184.936C1361.5 224.034 1406.27 260.786 1466.48 232.42C1485.69 223.36 1505.15 207.801 1520.8 191.839V191.785ZM759.784 266.907C721.225 268.714 686.498 243.448 655.673 218.533C607.854 179.893 563.309 132.598 513.204 98.3266C463.861 64.5674 403.286 43.4005 347.419 65.5381C347.128 68.2345 350.154 66.9402 351.477 66.6706C359.054 65.0258 366.452 61.7092 374.276 61.0082C481.526 51.5707 566.156 157.028 647.423 223.926C674.706 246.387 716.517 275.212 750.413 271.383C753.126 271.086 758.596 270.304 759.784 266.88V266.907ZM1515.8 208.314C1513.72 207.828 1512.48 209.527 1510.92 210.687C1506.05 214.3 1493.05 226.11 1488.65 227.485C1486.01 228.321 1483.25 227.377 1480.49 228.186C1476.82 229.265 1470.41 234.604 1466.15 236.491C1423.57 255.339 1387.08 244.985 1349.21 218.533C1255.01 152.713 1169.8 30.1071 1048.42 66.2931C1042.32 68.0997 1035.96 71.5241 1029.7 73.0881C1029.43 75.8924 1032.26 74.3015 1033.51 73.924C1044.81 70.3916 1056.02 66.5089 1067.81 65.5651C1170.33 57.4219 1241.71 145.433 1320.96 207.451C1357.21 235.817 1393.17 261.946 1438.59 252.94C1466.44 247.412 1494.59 230.29 1515.82 208.341L1515.8 208.314ZM752.274 275.913H731.649C713.333 275.913 671.052 248.463 654.888 235.979C563.668 165.495 478.881 46.1239 358.561 67.7492L346.141 73.0612C379.926 63.6776 414.361 70.6074 446.755 83.5502C497.914 103.989 541.698 147.267 584.719 185.125C622.964 218.776 698.178 297.943 748.777 278.475C750.1 277.962 752.543 278.124 752.274 275.913ZM1545.8 182.752L1505.71 222.443C1449.24 268.552 1396.33 269.415 1338.45 226.946C1251 162.771 1165.81 50.8696 1054.23 71.7669C1042.01 74.0588 1030.35 78.4 1018.45 82.0941C1018.13 84.7636 1021.25 83.5772 1022.53 83.2536C1025.64 82.4447 1028.69 80.3684 1031.92 79.5056C1061.6 71.6859 1091.49 72.6837 1120.95 81.3122C1186.97 100.646 1243.93 161.423 1299.22 206.534C1352.17 249.731 1400.73 287.993 1466.66 253.641C1488.41 242.316 1528.13 209.689 1543.29 188.01C1544.03 186.958 1546.99 184.396 1545.78 182.752H1545.8ZM734.788 286.456C725.036 283.814 714.791 283.814 705.061 280.874C672.89 271.221 639.038 241.291 612.428 217.94C541.272 155.491 472.066 74.2475 377.886 73.169L352.396 76.0811C352.105 78.6967 355.243 77.4833 356.745 77.5641C366.206 78.0225 376.115 76.8631 385.508 77.5641C476.46 84.3052 553.422 179.92 624.399 239.565C643.657 255.744 667.084 274.376 689.502 283.005C705.33 289.072 714.118 288.667 730.416 287.939C731.941 287.858 735.057 289.072 734.765 286.456H734.788ZM1565.8 160.236C1564.52 158.78 1561.11 163.472 1560.15 164.713C1552.48 174.689 1546.18 189.681 1537.68 199.308C1475.25 269.873 1410.79 295.408 1332.94 239.619C1246.4 177.655 1168.32 70.3108 1059.05 79.1011L1023.45 85.1411C1023.11 87.6218 1026.54 86.8129 1027.86 86.7051C1033.42 86.1927 1039.88 84.0356 1045.31 83.6311C1148.74 76.0002 1209.36 149.343 1287.96 214.084C1353.9 268.39 1405.64 308.782 1483.7 251.618C1493.11 244.715 1502.96 237.192 1512.01 230.047C1527.1 218.156 1547.3 191.973 1558.29 174.501C1559.29 172.91 1566.31 160.83 1565.8 160.263V160.236ZM723.534 296.972C705.689 293.494 688.426 289.018 671.859 280.227C631.73 258.926 596.017 219.504 561 188.144C501.86 135.214 441.756 77.672 363.022 82.0941L343.653 85.1142H373.021C468.681 93.8236 536.698 181.619 609.939 244.958C641.37 272.138 678.921 300.531 719.162 298.455C720.687 298.374 723.803 299.588 723.511 296.972H723.534ZM1035.96 91.1002C1062.25 90.3991 1088.15 93.527 1113.44 102.371C1174.91 123.916 1228.62 180.918 1280.48 224.573C1341.41 275.832 1400.28 320.782 1473.7 268.12C1484.71 260.22 1494.17 249.623 1504.53 240.617C1502.1 236.923 1502.69 239.188 1500.83 240.617C1496.1 244.311 1491.79 248.841 1486.97 252.508C1423.64 300.504 1376.52 289.395 1315.96 243.502C1233.22 180.756 1156.23 80.0988 1050.26 88.0533L1035.96 91.1272V91.1002ZM714.791 302.958H696.676C681.701 302.958 645.899 280.578 632.425 270.547C556.157 213.734 487.445 113.211 395.17 94.5517C383.916 92.2867 370.645 90.5609 359.278 91.1272C357.754 91.208 354.638 89.9947 354.929 92.6102C366.699 93.5001 378.558 95.01 390.149 97.5986C487.647 119.17 554.409 226.892 637.312 282.735C660.426 298.293 683.629 309.268 710.531 304.711C712.168 304.441 715.104 305.547 714.813 302.985L714.791 302.958ZM1523.72 220.798C1509.37 235.952 1499.21 251.43 1482.47 265.1C1380.31 348.528 1296.71 242.343 1216.29 175.498C1184.05 148.696 1152.69 122.109 1114.67 108.357C1087.32 98.4615 1060.77 95.037 1032.19 97.1132L1036.54 98.5963C1073.1 98.0031 1110.99 108.142 1143.84 127.367C1217.59 170.483 1308.68 290.069 1385.19 302.958C1437.32 311.722 1492.62 269.549 1526.47 224.87C1527.77 223.171 1528.13 220.475 1528.29 220.34C1529.72 219.072 1531.85 220.421 1530.17 223.36C1523.94 234.253 1504.84 253.128 1495.67 261.514C1478.16 277.45 1459.04 291.067 1438.32 299.992C1438.08 302.796 1440.97 301.286 1442.34 301.071C1469.42 296.864 1495.81 269.9 1515.2 247.466C1529.28 231.179 1537.79 216.295 1548.49 197.312C1555.84 184.235 1566.18 171.588 1573.26 157.972L1572.66 155.76C1563.76 167.463 1556.74 181.484 1548.29 193.672C1545.04 198.337 1538.27 204.458 1535.73 209.069C1534.68 210.983 1534.63 214.138 1534.48 214.354C1534.12 214.839 1531.94 213.032 1530.76 213.626C1530.33 213.841 1524.84 219.666 1523.69 220.852L1523.72 220.798ZM691.049 310.481C654.485 308.27 621.149 279.284 592.453 253.964C540.733 208.341 490.157 148.076 430.726 117.849C422.364 113.615 412.522 109.625 403.645 107.629L441.98 128.392C507.083 170.348 559.498 240.752 621.911 286.186C641.303 300.316 663.519 313.232 686.7 311.964C688.225 311.883 691.341 313.097 691.049 310.481ZM1580.35 155.194C1582.88 150.799 1586.31 144.732 1588.55 140.229C1589.11 139.123 1590.95 135.241 1588.28 136.885C1581.47 149.505 1573.24 160.991 1566 173.206C1565.01 174.878 1559.99 183.129 1560.8 184.235C1562.41 186.419 1577.12 158.861 1578.33 156.812C1578.84 155.922 1580.05 155.707 1580.35 155.194ZM948.481 142.197C947.113 140.633 945.006 144.274 944.221 145.325C933.953 159.023 926.129 168.137 914.718 180.487C913.979 181.269 909.271 186.769 909.742 187.255C910.997 188.603 919.135 178.545 921.668 178.276C927.407 168.326 937.922 160.83 944.154 151.284C944.804 150.26 948.794 142.575 948.481 142.224V142.197ZM1567.05 151.203C1564.7 150.556 1564.09 152.767 1562.68 154.197C1557.93 159.023 1554.88 165.117 1550.84 170.025C1549.43 171.75 1534.88 186.203 1535.82 187.255C1537.37 188.98 1544.83 178.168 1547.1 177.521L1567.07 151.203H1567.05ZM209.949 184.262C215.778 177.763 222.302 171.292 227.435 163.985C228.624 162.286 230.462 161.558 229.924 158.727C224.095 165.225 217.571 171.696 212.437 179.004C211.249 180.702 209.411 181.43 209.949 184.262ZM913.485 158.727C912.073 157.136 900.371 171.238 897.882 172.263C897.008 173.314 891.672 179.111 892.233 179.732C893.645 181.323 906.424 165.656 909.069 164.686C909.876 163.769 914.001 159.32 913.463 158.727H913.485ZM925.973 158.727C922.968 159.67 918.956 163.769 916.624 166.25C914.292 168.73 911.49 171.966 909.719 175.229C912.723 174.285 916.736 170.186 919.068 167.706C921.399 165.225 924.201 161.989 925.973 158.727ZM918.485 160.236C915.682 160.749 912.634 164.119 910.392 166.25C905.908 170.456 900.729 175.795 897.254 181.242L907.858 172.209L918.507 160.236H918.485ZM1545.8 170.753C1544.23 169.027 1536.81 179.866 1534.5 180.433C1528.67 191.65 1517.95 196.935 1510.8 206.777C1518.83 204.35 1523.11 194.481 1530.42 191.299C1530.8 188.064 1546.65 171.669 1545.8 170.726V170.753ZM884.745 172.236L870.397 184.262L859.748 197.744C862.102 198.391 862.708 196.18 864.12 194.751C871.137 187.632 878.087 179.866 884.745 172.236ZM849.75 178.249C848.562 176.981 845.782 179.435 844.571 180.271C837.24 185.448 823.655 200.117 817.355 207.64C813.409 212.331 813.813 215.163 819.126 209.77C828.452 200.359 837.98 191.407 847.373 182.104C847.979 181.511 851.902 180.541 849.727 178.222L849.75 178.249ZM853.494 182.752C852.709 181.862 838.496 194.562 836.097 195.641C834.662 197.151 818.274 212.574 819.754 214.3C821.144 215.918 847.172 187.848 851.117 186.608C852.574 186.608 854.884 184.369 853.494 182.752ZM908.486 182.752C907.163 181.242 895.483 195.506 892.905 196.288C892.143 197.097 889.229 200.171 889.744 200.764C891.067 202.193 900.684 191.245 902.837 190.221C903.038 188.414 910.571 185.098 908.486 182.752ZM890.977 190.248C893.04 186.796 889.318 187.066 887.323 189.627L870.98 208.287C878.087 205.86 882.615 197.447 887.861 191.731C888.915 190.598 890.865 190.409 890.955 190.248H890.977ZM851.005 191.785L839.146 200.818L829.752 212.817L838.787 205.24L850.983 191.812L851.005 191.785Z" fill="#E4E4E4"/>
</svg>
