<svg width="124" height="124" viewBox="0 0 124 124" fill="none" xmlns="http://www.w3.org/2000/svg">
<circle cx="61.5911" cy="61.5911" r="61.5911" fill="#296476"/>
<path d="M81.8733 62.5726C82.5518 62.6687 83.2303 62.7648 83.9293 62.8637C84.4725 66.3453 83.9003 67.5668 81.9679 70.5927C77.6078 75.7457 73.7382 79.7353 66.7902 80.5268C63.3365 80.7138 59.9284 80.6391 56.474 80.5123C53.4704 80.4172 52.4962 80.4268 49.8149 81.9533C49.391 82.4168 48.9671 82.8803 48.5304 83.3579C44.5318 81.8199 42.1218 78.9446 39.2148 75.9055C41.5202 71.0543 43.6527 67.3037 48.5304 64.7268C54.9826 63.7679 61.6104 64.2698 68.0929 64.7268C68.0929 66.2639 68.0929 67.801 68.0929 69.3846C65.6336 70.3068 63.1743 71.2291 60.6405 72.1793C63.9209 72.8074 66.6878 72.9352 69.956 72.1793C72.669 69.9542 74.851 67.5857 77.1064 64.9015C79.2715 62.8637 79.2715 62.8637 81.8733 62.5726Z" fill="white"/>
<path d="M66.2297 39.5749C68.104 39.5749 69.9799 39.5737 71.8517 39.4767C76.8105 39.276 76.8105 39.276 79.2714 40.5065C80.8262 43.6162 80.9604 46.499 80.2029 49.822C78.6646 52.3654 76.7734 54.3161 74.6136 56.3428C73.8259 57.1113 73.0381 57.8799 72.2265 58.6717C69.9559 60.069 69.9559 60.069 67.7434 60.1855C64.1383 58.6404 61.572 56.2601 58.7773 53.5482C58.1816 52.9718 57.586 52.3954 56.9724 51.8015C55.3448 48.5464 55.638 45.9877 55.9826 42.3696C58.0152 38.3044 62.2721 39.3698 66.2297 39.5749Z" fill="white"/>
</svg>
