<svg width="91" height="91" viewBox="0 0 91 91" fill="none" xmlns="http://www.w3.org/2000/svg">
<circle cx="45.0443" cy="45.0443" r="45.0443" fill="#CF7569"/>
<path d="M27.74 30.1324C27.74 36.4599 27.74 42.7874 27.74 49.3067C30.3744 49.262 33.0088 49.2174 35.7231 49.1714C37.3906 49.1444 39.0582 49.1176 40.7257 49.0913C43.3734 49.0496 46.021 49.0073 48.6686 48.9614C50.8028 48.9245 52.937 48.8902 55.0713 48.8578C55.8861 48.845 56.7009 48.8312 57.5157 48.8164C58.6557 48.7958 59.7957 48.7787 60.9358 48.7625C61.5851 48.7518 62.2344 48.7412 62.9034 48.7302C64.4908 48.7741 64.4908 48.7741 66.0886 49.3067C66.0886 52.9977 66.0886 56.6888 66.0886 60.4917C63.9581 61.0243 63.9581 61.0243 62.8929 60.4917C62.8929 59.4371 62.8929 58.3825 62.8929 57.296C51.2925 57.296 39.692 57.296 27.74 57.296C27.74 58.3505 27.74 59.4051 27.74 60.4917C25.7427 61.0909 25.7427 61.0909 24.5443 60.4917C24.5443 50.4731 24.5443 40.4545 24.5443 30.1324C25.6096 29.5998 25.6096 29.5998 27.74 30.1324Z" fill="white"/>
<path d="M42.1207 38.1215C44.8785 38.0556 47.6358 38.0073 50.3941 37.9753C51.3319 37.9619 52.2695 37.9437 53.207 37.9206C54.5571 37.8882 55.9063 37.8732 57.2567 37.8615C57.8827 37.8409 57.8827 37.8409 58.5213 37.8198C60.617 37.8188 61.6289 37.9968 63.4449 39.1365C64.4907 40.7846 64.4907 40.7846 64.4907 46.1108C57.1086 46.1108 49.7265 46.1108 42.1207 46.1108C42.1207 43.4744 42.1207 40.8379 42.1207 38.1215Z" fill="white"/>
<path d="M34.9304 37.9219C35.3423 37.9178 35.7543 37.9137 36.1787 37.9094C37.6179 38.1754 38.0839 38.5292 38.925 39.7195C39.1372 40.868 39.1372 40.868 39.1248 42.1163C39.1289 42.5282 39.133 42.9402 39.1372 43.3646C38.8713 44.8038 38.5174 45.2698 37.3272 46.1109C36.1787 46.3231 36.1787 46.3231 34.9304 46.3107C34.5184 46.3148 34.1065 46.3189 33.682 46.3231C32.2429 46.0572 31.7769 45.7034 30.9357 44.5131C30.7235 43.3646 30.7235 43.3646 30.736 42.1163C30.7319 41.7043 30.7278 41.2924 30.7235 40.868C31.1758 38.4203 32.6064 37.8987 34.9304 37.9219Z" fill="white"/>
</svg>
