<svg width="915" height="255" viewBox="0 0 915 255" fill="none" xmlns="http://www.w3.org/2000/svg">
<path d="M136.241 197.933C136.241 197.933 136.498 197.419 135.213 197.933C130.072 201.532 124.673 204.102 119.275 205.902C107.193 209.758 89.9703 210.015 76.0891 201.532C68.6344 196.905 62.4651 190.478 58.0951 182.509C53.7251 174.54 51.4117 165.544 51.4117 155.775C51.4117 145.493 53.7251 136.496 58.0951 128.27C62.4651 120.301 68.3775 113.618 75.8322 109.248C89.7134 100.508 107.45 100.765 119.275 104.878C124.416 106.677 129.815 109.248 135.47 112.847C136.498 113.361 137.012 113.618 137.012 113.618L161.176 76.8584C152.693 69.4037 143.181 64.5195 132.385 60.9207C121.846 57.3218 110.021 55.5225 97.6823 55.5225C78.9171 55.5225 61.9512 60.1496 47.0418 68.8896C32.3894 77.8867 20.5644 89.9683 12.5956 105.135C4.36975 120.301 0 137.524 0 155.775C0 174.027 4.36975 190.478 12.5956 205.645C20.8215 220.554 32.3893 232.636 47.2987 241.633C61.951 250.63 78.9168 255 97.425 255C110.278 255 122.103 253.2 132.899 249.602C143.696 245.746 153.464 240.605 162.204 234.178L136.241 197.933Z" fill="white"/>
<path d="M346 105.392C337.003 90.2254 324.665 77.8867 308.984 68.8896C293.561 60.1496 276.338 55.5225 257.573 55.5225C238.807 55.5225 221.841 60.1496 206.418 68.8896C190.994 77.8867 178.655 89.9684 169.658 105.392C160.661 120.558 156.292 137.524 156.292 155.775C156.292 174.027 160.661 190.735 169.658 205.645C178.398 220.811 190.737 232.893 206.161 241.633C221.584 250.63 239.321 255 257.315 255C275.309 255 293.304 250.63 308.727 241.633C324.408 232.893 336.746 220.811 346 205.645C354.998 190.735 359.368 173.769 359.368 155.775C359.368 137.781 354.998 120.558 346 105.392ZM301.015 180.71C296.645 188.422 290.733 194.591 283.021 198.961C275.567 203.331 266.827 205.387 257.83 205.387C248.833 205.387 240.093 203.331 232.638 198.961C225.183 194.591 219.014 188.422 214.644 180.71C210.274 173.255 207.96 164.772 207.96 155.261C207.96 145.75 210.274 137.267 214.644 129.813C219.014 122.101 225.183 116.188 232.638 111.818C247.547 103.078 267.855 103.078 283.021 111.818C290.733 116.188 296.645 122.101 301.015 129.813C305.385 137.267 307.699 146.007 307.699 155.261C307.699 164.515 305.385 173.255 301.015 180.71Z" fill="white"/>
<path d="M561.677 104.88C552.68 89.7133 540.598 77.6317 525.432 68.8917C510.265 59.8947 493.556 55.5246 475.562 55.5246C468.107 55.5246 461.167 56.0387 454.997 57.324C448.828 58.6093 443.173 60.4087 437.775 62.9793L428.52 67.0923V0.514031L377.366 0L376.852 249.347L415.924 249.861C415.924 249.861 417.467 249.861 418.238 248.061L419.009 246.776L429.292 240.093L432.633 242.406C444.715 250.375 459.11 254.488 475.562 254.488C493.556 254.488 510.265 249.861 525.432 240.864C540.598 231.867 552.937 219.785 561.934 204.618C570.674 189.452 575.301 172.486 575.301 154.492C575.301 136.498 570.674 120.046 561.677 104.88ZM516.949 180.969C512.836 188.424 506.923 194.336 499.468 198.449C492.014 202.562 483.531 204.618 474.534 204.618C465.537 204.618 457.054 202.562 449.342 198.449C441.887 194.336 435.718 188.424 431.348 180.969C426.978 173.257 424.665 164.774 424.665 155.263C424.665 145.752 426.978 137.526 431.348 129.815C435.461 122.103 441.63 116.19 449.085 111.82C463.995 102.823 484.302 103.08 498.955 111.82C506.666 116.19 512.579 122.36 516.949 130.072C521.319 137.783 523.375 146.266 523.375 155.521C523.375 164.775 521.319 173.772 516.949 181.226V180.969Z" fill="white"/>
<path d="M643.697 1.02844L593.057 0.257294L592.543 249.347L643.44 249.861H644.211L643.697 1.02844Z" fill="white"/>
<path d="M853.447 155.261C853.447 135.725 849.591 118.245 841.879 103.335C834.167 88.426 823.113 76.6013 808.718 68.3754C794.323 59.8925 776.586 55.5225 756.535 55.5225C738.027 55.5225 721.575 60.1496 707.18 68.8896C692.785 77.8867 681.474 90.2254 673.505 105.392C665.537 120.558 661.424 137.524 661.424 155.518C661.424 173.513 665.537 190.221 674.02 205.387C682.503 220.554 694.327 232.636 709.237 241.633C724.403 250.63 741.626 255 760.905 255C772.987 255 784.298 253.2 794.837 249.602C805.377 246.003 814.888 240.862 823.628 234.435L799.464 198.961C793.295 202.56 787.897 205.388 782.498 207.187C768.617 211.814 749.081 210.786 735.199 202.56C726.716 197.419 720.033 189.964 715.663 180.196L711.293 170.942H851.647C853.19 165.543 853.447 160.659 853.447 155.261ZM711.293 136.496L714.892 127.499C718.748 117.988 724.66 110.79 732.115 105.649C747.024 95.8808 770.159 95.8808 785.069 105.649C792.524 110.533 798.179 117.988 802.035 127.756L805.119 136.496H711.293Z" fill="white"/>
<path d="M914.346 199.477L857.793 198.706L857.279 249.346L913.832 249.86H914.86L914.346 199.477Z" fill="white"/>
</svg>
