<svg width="62" height="63" viewBox="0 0 62 63" fill="none" xmlns="http://www.w3.org/2000/svg">
<path d="M34.6454 25.1795C34.2872 25.2987 32.2452 26.2324 32.1024 26.151C27.9352 20.5689 20.9991 17.7631 16.0866 13.0001C13.717 10.7004 11.8026 8.13676 12.6807 4.60466C13.4459 1.51983 17.6162 -0.0731173 20.5134 0.712044C24.1117 1.68727 26.9563 7.62237 27.7245 10.9305C27.7581 11.0715 27.6527 11.0979 27.9093 11.0715L29.1448 0.574019C29.0051 0.54762 28.9677 0.574018 28.8661 0.641146C28.6813 0.760315 28.4706 1.00243 28.2254 1.12084C26.0063 2.2077 23.1205 0.454849 20.909 0.131281C15.5398 -0.649355 9.45512 2.08174 7.937 7.51527C5.21309 17.2947 16.938 22.8135 22.883 28.1791C23.878 29.0759 24.7822 30.0587 25.6222 31.104L25.5886 31.316C22.5745 34.9371 21.316 39.6405 22.0392 44.2881C22.2728 45.7875 22.8043 47.2281 23.2182 48.6567C21.0029 50.0113 17.917 50.3575 15.3367 50.1561C2.90002 49.1846 0.496081 28.7848 12.108 24.0067C12.4662 23.8581 14.3951 23.3105 14.4364 23.1137C14.4554 23.0096 14.3722 22.9274 14.2783 22.8979C14.0973 22.8421 12.8617 22.9424 12.5868 22.9764C4.16232 23.9659 -1.19538 30.4411 0.228807 38.8365C1.89813 48.6974 12.5754 52.7876 21.6741 50.6961C22.1339 50.592 23.6405 49.9856 23.9536 50.0595C25.9276 53.7508 29.2281 56.8469 33.267 58.2242C34.8798 58.771 36.488 58.9905 38.1948 59.0538C38.3979 58.9905 38.417 58.5553 38.2589 58.4474C34.469 58.3954 31.2097 56.8658 28.8623 53.9522C27.7207 52.5342 26.6584 50.6252 26.3079 48.858C32.4003 45.8698 35.4105 39.0635 34.9317 32.4918C34.8111 30.8469 34.1856 29.407 33.4319 27.9702C33.3227 27.762 33.0593 27.6429 33.1227 27.3487C33.1456 27.2522 34.5957 26.4889 34.8179 26.381C40.6201 23.5194 49.2706 23.9773 53.3622 29.4696C57.3744 34.8541 57.3217 46.0251 51.1133 49.877C49.6555 50.7813 48.1106 51.1125 46.4154 51.2837C46.3925 50.9782 46.3214 50.5951 46.3176 50.3017C46.2802 48.6831 46.4077 47.0418 46.4192 45.427C46.4345 43.1945 46.2794 40.7832 46.4115 38.58C46.4719 37.5309 46.7621 35.7856 47.6021 35.0676C47.7304 34.9597 48.8644 34.4649 48.691 34.3194H38.1604C38.3528 34.7251 38.8912 34.7546 39.2868 35.1234C40.0138 35.8045 40.3757 37.4193 40.4399 38.3907C40.8881 45.1525 40.097 52.3939 40.4361 59.2001C40.236 60.6852 39.6449 62.2661 38.1115 62.8099L38.2055 63H48.6452L48.7391 62.8099C46.882 62.1922 46.5047 60.0637 46.4108 58.3629C46.2901 56.2307 46.5085 53.9906 46.4146 51.8471C49.3798 51.7543 52.187 51.2889 54.8765 50.0347C58.5428 48.3301 61.2888 45.0597 61.7752 41.0072C63.5087 26.5877 45.9893 21.437 34.6446 25.181L34.6454 25.1795ZM26.3003 45.8954C26.1078 46.1594 25.9238 46.4279 25.6336 46.5953L25.2648 42.978C25.3931 40.0048 25.8413 37.184 27.0548 34.4566C27.1036 34.3563 27.2548 33.8759 27.3862 33.943C27.4656 33.9837 27.891 35.0932 27.9436 35.2712C28.7951 38.3485 28.2262 43.2495 26.3011 45.8954H26.3003Z" fill="white"/>
</svg>
