<svg width="91" height="91" viewBox="0 0 91 91" fill="none" xmlns="http://www.w3.org/2000/svg">
<circle cx="45.0443" cy="45.0443" r="45.0443" fill="#CF7569"/>
<path d="M59.8777 45.7622C60.3739 45.8325 60.8701 45.9027 61.3813 45.9751C61.7786 48.5213 61.3602 49.4147 59.9469 51.6276C56.7581 55.3963 53.9282 58.3141 48.8468 58.8929C46.3209 59.0297 43.8284 58.975 41.3021 58.8823C39.1054 58.8127 38.393 58.8197 36.432 59.9361C36.1219 60.2751 35.8119 60.6141 35.4925 60.9634C32.5682 59.8386 30.8057 57.7358 28.6797 55.5131C30.3657 51.9652 31.9253 49.2223 35.4925 47.3377C40.2114 46.6363 45.0586 47.0034 49.7995 47.3377C49.7995 48.4618 49.7995 49.5859 49.7995 50.7441C48.0009 51.4186 46.2023 52.093 44.3492 52.788C46.7483 53.2474 48.7719 53.3408 51.1621 52.788C53.1462 51.1607 54.742 49.4285 56.3915 47.4654C57.9749 45.9751 57.9749 45.9751 59.8777 45.7622Z" fill="white"/>
<path d="M48.4371 28.9431C49.8079 28.9431 51.1798 28.9422 52.5488 28.8713C56.1753 28.7246 56.1753 28.7246 57.9751 29.6244C59.1122 31.8987 59.2103 34.007 58.6564 36.4373C57.5313 38.2974 56.1482 39.724 54.5687 41.2063C53.9926 41.7683 53.4165 42.3304 52.8229 42.9095C51.1623 43.9314 51.1623 43.9314 49.5442 44.0166C46.9076 42.8866 45.0308 41.1458 42.9868 39.1624C42.5512 38.7409 42.1156 38.3193 41.6669 37.885C40.4765 35.5044 40.691 33.6331 40.943 30.987C42.4295 28.014 45.5428 28.7932 48.4371 28.9431Z" fill="white"/>
</svg>
