<svg width="91" height="91" viewBox="0 0 91 91" fill="none" xmlns="http://www.w3.org/2000/svg">
<circle cx="45.0443" cy="45.0443" r="45.0443" fill="#CF7569"/>
<path d="M45.8256 35.6619C47.3415 35.6541 47.3415 35.6541 48.8881 35.6462C52.0294 35.9303 54.0916 36.3295 56.8256 37.9119C58.2318 40.3728 58.2318 40.3728 59.3256 43.2869C61.2008 47.8588 62.833 49.946 66.8256 52.9119C67.1381 55.6619 67.1381 55.6619 66.8256 57.9119C63.0092 58.4731 61.8689 57.9424 58.6381 55.6619C56.2913 53.3672 54.9428 51.9284 53.8256 48.9119C53.8256 50.8919 53.8256 52.8719 53.8256 54.9119C54.3824 55.1594 54.9393 55.4069 55.5131 55.6619C58.2253 57.1279 60.4614 58.9418 62.8256 60.9119C62.3306 63.3869 62.3306 63.3869 61.8256 65.9119C51.2656 65.9119 40.7056 65.9119 29.8256 65.9119C29.4956 64.2619 29.1656 62.6119 28.8256 60.9119C30.6925 58.4917 32.1694 57.1743 35.0131 56.0369C37.1977 54.9751 37.1977 54.9751 37.5756 51.7869C37.6581 50.8381 37.7406 49.8894 37.8256 48.9119C37.4337 49.6544 37.0418 50.3969 36.6381 51.1619C34.6408 54.1922 32.8755 55.9512 29.8256 57.9119C27.0131 58.1619 27.0131 58.1619 24.8256 57.9119C24.4506 55.7244 24.4506 55.7244 24.8256 52.9119C26.2808 51.7543 27.7421 50.6027 29.2435 49.5056C31.8457 46.8841 32.6249 43.5977 33.6732 40.1189C34.8256 37.9119 34.8256 37.9119 37.0717 36.6267C40.0936 35.8423 42.7049 35.6459 45.8256 35.6619ZM43.8256 58.9119C43.8256 59.2419 43.8256 59.5719 43.8256 59.9119C45.4756 59.9119 47.1256 59.9119 48.8256 59.9119C48.8256 59.5819 48.8256 59.2519 48.8256 58.9119C47.1756 58.9119 45.5256 58.9119 43.8256 58.9119Z" fill="white"/>
<path d="M47.3867 22.04C48.3323 22.2025 48.3322 22.2025 49.2969 22.3682C51.2969 25.3682 51.2969 25.3682 50.9844 28.9932C50.2969 32.3682 50.2969 32.3682 49.2969 33.3682C43.4558 33.739 43.4558 33.739 41.2969 33.3682C39.2969 30.3682 39.2969 30.3682 39.6094 26.7432C40.7114 21.3335 42.1343 22.2307 47.3867 22.04Z" fill="white"/>
</svg>
