<svg width="124" height="124" viewBox="0 0 124 124" fill="none" xmlns="http://www.w3.org/2000/svg">
<circle cx="61.5911" cy="61.5911" r="61.5911" fill="#296476"/>
<path d="M31.5469 42.0623C33.5298 42.0623 35.5127 42.0623 37.5558 42.0623C37.5558 49.994 37.5558 57.9257 37.5558 66.0978C39.043 65.8499 40.5302 65.6021 42.0624 65.3467C41.5667 64.6031 41.071 63.8595 40.5602 63.0934C40.0663 57.9076 40.0663 57.9076 41.6869 55.2067C44.3427 53.6132 46.5533 53.4859 49.5735 54.08C51.4513 55.2067 51.4513 55.2067 52.578 57.0845C53.0833 60.304 52.9252 62.5726 51.0758 65.3467C52.563 65.5946 54.0502 65.8424 55.5824 66.0978C55.4895 64.7036 55.4895 64.7036 55.3947 63.2811C55.2512 61.1299 55.4338 60.3025 56.6805 58.5111C59.4833 56.4136 61.9308 56.6526 65.3469 56.6854C66.0024 56.6826 66.6579 56.6797 67.3332 56.6767C68.7171 56.6747 70.101 56.6802 71.4849 56.6928C73.6019 56.7089 75.7171 56.6929 77.8341 56.6737C79.1798 56.6757 80.5256 56.6795 81.8713 56.6854C82.5036 56.6794 83.1358 56.6733 83.7872 56.667C86.4745 56.71 88.1823 56.8258 90.5377 58.1825C92.2002 61.0689 92.0083 63.6815 91.9292 66.9545C91.9249 67.6172 91.9207 68.2798 91.9163 68.9625C91.8995 71.075 91.8618 73.1866 91.8235 75.2989C91.8085 76.7327 91.7948 78.1664 91.7825 79.6002C91.7494 83.1116 91.6975 86.6223 91.6358 90.1334C89.6528 90.1334 87.6699 90.1334 85.6269 90.1334C85.6269 88.1504 85.6269 86.1675 85.6269 84.1245C69.7634 84.1245 53.8999 84.1245 37.5558 84.1245C37.5558 86.1074 37.5558 88.0903 37.5558 90.1334C35.5728 90.1334 33.5899 90.1334 31.5469 90.1334C31.5469 74.2699 31.5469 58.4064 31.5469 42.0623Z" fill="white"/>
<path d="M67.6001 39.0577C70.5745 39.0577 73.5489 39.0577 76.6134 39.0577C76.6134 43.1507 75.9619 44.1583 73.609 47.32C74.6005 47.5678 75.5919 47.8157 76.6134 48.0711C76.6134 49.0625 76.6134 50.054 76.6134 51.0755C73.639 51.0755 70.6646 51.0755 67.6001 51.0755C67.6001 46.8505 67.6001 46.8505 69.4779 44.4564C69.8264 44.0023 70.175 43.5482 70.5341 43.0803C70.8052 42.7443 71.0763 42.4083 71.3557 42.0622C70.1163 42.0622 68.877 42.0622 67.6001 42.0622C67.6001 41.0707 67.6001 40.0793 67.6001 39.0577Z" fill="white"/>
<path d="M79.6182 33.0488C82.5926 33.0488 85.567 33.0488 88.6315 33.0488C88.6315 37.1418 87.9799 38.1494 85.6271 41.3111C86.6185 41.5589 87.61 41.8068 88.6315 42.0622C88.6315 43.0536 88.6315 44.0451 88.6315 45.0666C85.6571 45.0666 82.6827 45.0666 79.6182 45.0666C79.6182 40.8416 79.6182 40.8416 81.4959 38.4474C81.8445 37.9933 82.1931 37.5392 82.5522 37.0714C82.8233 36.7354 83.0944 36.3994 83.3737 36.0533C82.1344 36.0533 80.8951 36.0533 79.6182 36.0533C79.6182 35.0618 79.6182 34.0703 79.6182 33.0488Z" fill="white"/>
</svg>
