<svg width="124" height="124" viewBox="0 0 124 124" fill="none" xmlns="http://www.w3.org/2000/svg">
<circle cx="61.5911" cy="61.5911" r="61.5911" fill="#296476"/>
<path d="M58.2094 31.5466C65.4706 31.7166 71.058 33.8081 76.4239 38.7761C80.3814 43.0215 83.1563 48.0452 84.78 53.6105C85.9855 57.7079 88.4195 61.0709 90.7742 64.5838C92.0378 66.901 92.4484 68.024 92.0094 70.6044C90.0498 72.511 88.5977 73.4942 86.0005 74.36C85.9899 75.2924 85.9792 76.2248 85.9683 77.1854C85.933 78.4187 85.8968 79.652 85.8597 80.8852C85.8553 81.4986 85.851 82.112 85.8465 82.7439C85.7367 85.7578 85.4467 87.5467 83.888 90.1802C80.2246 92.407 76.8159 92.0368 72.6214 91.8702C71.8143 91.8533 71.0073 91.8364 70.1758 91.8189C68.1896 91.7748 66.2038 91.7074 64.2183 91.6355C64.2183 86.4303 64.2183 81.2251 64.2183 75.8622C66.4491 74.6229 68.6799 73.3835 70.9783 72.1066C74.5425 67.9605 75.357 64.7153 75.0889 59.2644C74.5353 55.8652 73.438 53.501 70.9783 51.0755C69.3412 50.0443 67.6758 49.1897 65.9376 48.341C62.9903 46.5907 61.0538 43.9775 58.9605 41.3111C58.7127 41.0632 58.4648 40.8153 58.2094 40.56C58.155 39.043 58.1465 37.5242 58.1625 36.0064C58.1693 35.1766 58.176 34.3468 58.183 33.4919C58.1917 32.85 58.2004 32.208 58.2094 31.5466Z" fill="white"/>
<path d="M53.7025 43.5645C57.4036 45.2829 59.2196 47.5477 61.2136 51.0756C61.2136 51.5713 61.2136 52.0671 61.2136 52.5778C62.0037 52.6088 62.7938 52.6398 63.6078 52.6717C66.4855 53.3322 67.816 53.9716 69.561 56.3774C70.903 59.3157 70.8753 62.2214 70.227 65.3467C68.9468 67.6858 67.3906 69.3938 64.9692 70.6045C62.2361 71.3846 60.1612 71.557 57.4581 70.6045C55.5859 68.5942 54.2749 66.2413 52.985 63.8296C52.2899 62.5441 51.4994 61.3111 50.6981 60.0889C49.7066 60.0889 48.7152 60.0889 47.6936 60.0889C47.1979 62.5676 46.7022 65.0463 46.1914 67.6001C45.4633 67.8169 44.7352 68.0338 43.985 68.2573C41.6047 68.8335 41.6047 68.8335 40.9336 70.6045C37.5761 70.5373 35.459 70.0591 33.0939 67.6939C30.765 64.6801 30.656 61.9474 30.8699 58.2288C31.4079 54.8216 33.0619 52.5028 35.6759 50.3245C36.4195 50.0766 37.1631 49.8288 37.9292 49.5734C38.5334 48.8453 39.1375 48.1172 39.76 47.367C43.6206 42.7532 47.9705 42.9498 53.7025 43.5645Z" fill="white"/>
<path d="M49.1959 63.0934C51.6943 63.9262 51.8801 64.1875 53.148 66.3296C53.5946 67.0783 53.5946 67.0783 54.0502 67.8421C54.5056 68.6286 54.5056 68.6286 54.9701 69.4309C55.2823 69.9523 55.5946 70.4737 55.9163 71.0109C58.2092 74.9002 58.2092 74.9002 58.2092 76.6134C56.4742 76.8612 54.7391 77.1091 52.9515 77.3645C52.7036 79.5953 52.4557 81.8261 52.2003 84.1245C49.702 83.2917 49.5162 83.0304 48.2482 80.8883C47.8016 80.1396 47.8016 80.1396 47.346 79.3758C47.0425 78.8515 46.7389 78.3272 46.4262 77.787C46.1139 77.2656 45.8017 76.7442 45.48 76.207C43.187 72.3177 43.187 72.3177 43.187 70.6045C45.7896 70.2327 45.7896 70.2327 48.4448 69.8534C48.6927 67.6226 48.9405 65.3918 49.1959 63.0934Z" fill="white"/>
</svg>
